<?xml version="1.0" encoding="UTF-8"?>
<svg id="Layer_2" data-name="Layer 2" xmlns="http://www.w3.org/2000/svg" viewBox="0 0 633.15 107.96">
  <g id="Layer_1-2" data-name="Layer 1">
    <g>
      <path d="M3.33,38.21c2.22-4.31,5.24-7.63,9.06-9.95,3.81-2.32,8.08-3.48,12.79-3.48,4.11,0,7.71.83,10.8,2.49,3.08,1.66,5.56,3.75,7.41,6.27v-7.86h14.03v55.13h-14.03v-8.06c-1.79,2.59-4.26,4.73-7.41,6.42-3.15,1.69-6.78,2.54-10.9,2.54-4.64,0-8.87-1.19-12.69-3.58-3.82-2.39-6.83-5.75-9.06-10.1-2.22-4.34-3.33-9.34-3.33-14.98s1.11-10.51,3.33-14.83ZM41.39,44.53c-1.33-2.42-3.12-4.28-5.37-5.57-2.26-1.29-4.68-1.94-7.26-1.94s-4.98.63-7.16,1.89c-2.19,1.26-3.96,3.1-5.32,5.52-1.36,2.42-2.04,5.29-2.04,8.61s.68,6.22,2.04,8.71c1.36,2.49,3.15,4.4,5.37,5.72,2.22,1.33,4.59,1.99,7.11,1.99s5.01-.65,7.26-1.94c2.25-1.29,4.05-3.15,5.37-5.57,1.33-2.42,1.99-5.32,1.99-8.71s-.66-6.28-1.99-8.71Z"/>
      <path d="M92.39,27.26c3.15-1.66,6.75-2.49,10.8-2.49,4.71,0,8.97,1.16,12.79,3.48,3.81,2.32,6.83,5.62,9.06,9.9,2.22,4.28,3.33,9.24,3.33,14.88s-1.11,10.63-3.33,14.98c-2.22,4.34-5.24,7.71-9.06,10.1-3.82,2.39-8.08,3.58-12.79,3.58-4.11,0-7.71-.81-10.8-2.44-3.08-1.62-5.56-3.73-7.41-6.32v7.86h-13.93V7.16h13.93v26.57c1.79-2.65,4.26-4.81,7.41-6.47ZM112.09,44.43c-1.36-2.42-3.15-4.26-5.37-5.52-2.22-1.26-4.63-1.89-7.21-1.89s-4.89.65-7.11,1.94c-2.22,1.29-4.01,3.17-5.37,5.62-1.36,2.46-2.04,5.34-2.04,8.66s.68,6.2,2.04,8.66c1.36,2.46,3.15,4.33,5.37,5.62,2.22,1.29,4.59,1.94,7.11,1.94s4.99-.66,7.21-1.99c2.22-1.33,4.01-3.22,5.37-5.67,1.36-2.45,2.04-5.37,2.04-8.76s-.68-6.18-2.04-8.61Z"/>
      <path d="M189.36,57.42h-40.3c.33,3.98,1.72,7.1,4.18,9.35,2.45,2.26,5.47,3.38,9.06,3.38,5.17,0,8.86-2.22,11.05-6.67h15.03c-1.59,5.31-4.64,9.67-9.15,13.08-4.51,3.42-10.05,5.12-16.62,5.12-5.31,0-10.07-1.18-14.28-3.53-4.21-2.35-7.5-5.69-9.85-10-2.36-4.31-3.53-9.29-3.53-14.93s1.16-10.71,3.48-15.03c2.32-4.31,5.57-7.63,9.75-9.95,4.18-2.32,8.99-3.48,14.43-3.48s9.93,1.13,14.08,3.38c4.15,2.26,7.36,5.46,9.65,9.6,2.29,4.15,3.43,8.91,3.43,14.28,0,1.99-.13,3.78-.4,5.37ZM175.33,48.06c-.07-3.58-1.36-6.45-3.88-8.61-2.52-2.16-5.61-3.23-9.25-3.23-3.45,0-6.35,1.04-8.71,3.13-2.36,2.09-3.8,4.99-4.33,8.71h26.17Z"/>
      <path d="M213.84,7.16v73.63h-13.93V7.16h13.93Z"/>
      <path d="M260.01,27.21c3.12,1.63,5.57,3.73,7.36,6.32v-7.86h14.03v55.53c0,5.11-1.03,9.67-3.08,13.68-2.06,4.01-5.14,7.2-9.25,9.55-4.11,2.35-9.09,3.53-14.93,3.53-7.83,0-14.25-1.83-19.25-5.47-5.01-3.65-7.85-8.62-8.51-14.93h13.83c.73,2.52,2.3,4.53,4.73,6.02,2.42,1.49,5.36,2.24,8.81,2.24,4.05,0,7.33-1.21,9.85-3.63,2.52-2.42,3.78-6.09,3.78-11v-8.56c-1.79,2.59-4.26,4.74-7.41,6.47-3.15,1.72-6.75,2.59-10.8,2.59-4.64,0-8.89-1.19-12.74-3.58-3.85-2.39-6.88-5.75-9.1-10.1-2.22-4.34-3.33-9.34-3.33-14.98s1.11-10.51,3.33-14.83c2.22-4.31,5.24-7.63,9.06-9.95,3.81-2.32,8.08-3.48,12.79-3.48,4.11,0,7.73.81,10.85,2.44ZM265.38,44.53c-1.33-2.42-3.12-4.28-5.37-5.57-2.26-1.29-4.68-1.94-7.26-1.94s-4.98.63-7.16,1.89c-2.19,1.26-3.96,3.1-5.32,5.52-1.36,2.42-2.04,5.29-2.04,8.61s.68,6.22,2.04,8.71c1.36,2.49,3.15,4.4,5.37,5.72,2.22,1.33,4.59,1.99,7.11,1.99s5.01-.65,7.26-1.94c2.25-1.29,4.05-3.15,5.37-5.57,1.33-2.42,1.99-5.32,1.99-8.71s-.66-6.28-1.99-8.71Z"/>
      <path d="M347.08,25.67v55.13h-14.03v-6.97c-1.79,2.39-4.13,4.26-7.02,5.62-2.89,1.36-6.02,2.04-9.4,2.04-4.31,0-8.13-.91-11.44-2.74-3.32-1.82-5.92-4.51-7.81-8.06-1.89-3.55-2.84-7.78-2.84-12.69V25.67h13.93v30.35c0,4.38,1.09,7.75,3.28,10.1,2.19,2.36,5.17,3.53,8.96,3.53s6.87-1.18,9.06-3.53c2.19-2.35,3.28-5.72,3.28-10.1v-30.35h14.03Z"/>
      <path d="M373.54,69.36h24.58v11.44h-40.4v-11.24l24.08-32.44h-23.98v-11.44h40v11.24l-24.28,32.44Z"/>
      <path d="M493.7,31.1c4.15,4.15,6.22,9.93,6.22,17.36v32.34h-13.93v-30.45c0-4.31-1.09-7.61-3.28-9.9-2.19-2.29-5.17-3.43-8.96-3.43s-6.78,1.14-9.01,3.43c-2.22,2.29-3.33,5.59-3.33,9.9v30.45h-13.93v-30.45c0-4.31-1.09-7.61-3.28-9.9-2.19-2.29-5.17-3.43-8.96-3.43s-6.88,1.14-9.1,3.43c-2.22,2.29-3.33,5.59-3.33,9.9v30.45h-13.93V25.67h13.93v6.67c1.79-2.32,4.1-4.14,6.92-5.47,2.82-1.33,5.92-1.99,9.3-1.99,4.31,0,8.16.91,11.54,2.74,3.38,1.83,6,4.43,7.86,7.81,1.79-3.18,4.39-5.74,7.81-7.66,3.42-1.92,7.11-2.89,11.1-2.89,6.77,0,12.22,2.07,16.37,6.22Z"/>
      <path d="M512.9,38.21c2.22-4.31,5.24-7.63,9.06-9.95,3.81-2.32,8.08-3.48,12.79-3.48,4.11,0,7.71.83,10.8,2.49,3.08,1.66,5.56,3.75,7.41,6.27v-7.86h14.03v55.13h-14.03v-8.06c-1.79,2.59-4.26,4.73-7.41,6.42-3.15,1.69-6.78,2.54-10.9,2.54-4.64,0-8.87-1.19-12.69-3.58-3.82-2.39-6.83-5.75-9.06-10.1-2.22-4.34-3.33-9.34-3.33-14.98s1.11-10.51,3.33-14.83ZM550.96,44.53c-1.33-2.42-3.12-4.28-5.37-5.57-2.26-1.29-4.68-1.94-7.26-1.94s-4.98.63-7.16,1.89c-2.19,1.26-3.96,3.1-5.32,5.52-1.36,2.42-2.04,5.29-2.04,8.61s.68,6.22,2.04,8.71c1.36,2.49,3.15,4.4,5.37,5.72,2.22,1.33,4.59,1.99,7.11,1.99s5.01-.65,7.26-1.94c2.25-1.29,4.05-3.15,5.37-5.57,1.33-2.42,1.99-5.32,1.99-8.71s-.66-6.28-1.99-8.71ZM551.06,11.34l-22.89,10.45v-9.95l22.89-11.84v11.34Z"/>
      <path d="M627.08,31.1c4.05,4.15,6.07,9.93,6.07,17.36v32.34h-13.93v-30.45c0-4.38-1.09-7.74-3.28-10.1-2.19-2.35-5.17-3.53-8.96-3.53s-6.88,1.18-9.1,3.53c-2.22,2.36-3.33,5.72-3.33,10.1v30.45h-13.93V25.67h13.93v6.87c1.86-2.39,4.23-4.26,7.11-5.62,2.89-1.36,6.05-2.04,9.5-2.04,6.57,0,11.87,2.07,15.92,6.22Z"/>
    </g>
  </g>
</svg>