<svg width="686" height="343" viewBox="0 0 686 343" fill="none" xmlns="http://www.w3.org/2000/svg">
<path d="M11.0022 162.983V0H75.5117C95.4485 0 109.831 4.41456 118.661 13.2437C125.354 19.9367 128.7 29.1218 128.7 40.7991C128.7 50.1978 126.564 58.1725 122.292 64.7231C118.162 71.1314 112.252 75.3323 104.562 77.326C114.958 79.0349 122.933 83.2358 128.486 89.9289C134.183 96.4795 137.031 105.024 137.031 115.562C137.031 122.967 135.678 129.66 132.972 135.641C130.409 141.622 126.92 146.464 122.505 150.166C116.24 155.15 109.048 158.568 100.931 160.419C92.9564 162.128 85.4089 162.983 78.2886 162.983H11.0022ZM73.5893 67.7137C81.4216 67.7137 87.4026 66.0048 91.5323 62.5871C95.6621 59.0269 97.727 53.9716 97.727 47.4209C97.727 41.0127 95.8045 36.3133 91.9595 33.3228C89.6811 31.3291 86.6193 29.9051 82.7744 29.0506C79.0719 28.0538 74.3725 27.5554 68.6763 27.5554H41.7617V67.7137H73.5893ZM74.4437 135.427C79.8551 135.427 84.6969 135 88.969 134.146C93.3836 133.291 97.0861 131.582 100.077 129.019C104.064 125.744 106.058 120.475 106.058 113.212C106.058 104.81 103.494 99.3276 98.3678 96.7643C93.2412 94.0586 86.4057 92.7058 77.8614 92.7058H41.7617V135.427H74.4437Z" fill="#1C0B10"/>
<path d="M147.977 162.983V43.1488H176.814V57.4605C181.228 51.3371 186.141 46.9937 191.552 44.4304C197.106 41.8671 203.586 40.5855 210.991 40.5855H214.409V68.3545H207.787C198.673 68.3545 191.552 70.7754 186.426 75.6171C183.151 78.8925 180.73 83.0934 179.163 88.22C177.597 93.2042 176.814 99.6124 176.814 107.445V162.983H147.977Z" fill="#1C0B10"/>
<path d="M254.089 165.332C242.412 165.332 232.942 162.271 225.68 156.147C218.417 149.881 214.786 141.195 214.786 130.087C214.786 118.125 219.343 109.011 228.457 102.745C235.007 98.1883 244.335 94.7706 256.439 92.4921L292.112 85.8703C291.827 78.4652 289.904 72.8402 286.344 68.9953C282.784 65.1504 277.444 63.2279 270.324 63.2279C264.77 63.2279 259.857 64.8655 255.585 68.1409C251.455 71.4162 248.892 75.8307 247.895 81.3845H219.271C221.265 68.1409 227.104 58.0301 236.787 51.0522C246.471 44.0744 257.721 40.5855 270.537 40.5855C277.8 40.5855 284.564 41.6535 290.83 43.7896C297.096 45.7833 302.436 48.7738 306.851 52.7611C311.265 56.606 314.469 61.0918 316.463 66.2184C318.457 71.345 319.667 76.4716 320.094 81.5982C320.664 86.7247 320.949 93.0618 320.949 100.609V162.983H292.112V146.749C289.121 152.018 285.49 156.005 281.218 158.711C274.525 163.125 265.482 165.332 254.089 165.332ZM261.139 142.69C266.835 142.69 271.961 141.551 276.518 139.272C282.499 136.282 286.629 132.294 288.908 127.31C291.186 122.326 292.468 115.562 292.753 107.017L264.129 112.785C256.439 114.209 250.885 116.487 247.468 119.62C244.904 122.184 243.623 125.317 243.623 129.019C243.623 133.434 245.189 136.851 248.322 139.272C251.597 141.551 255.87 142.69 261.139 142.69Z" fill="#1C0B10"/>
<path d="M335.008 162.983V43.1488H363.846V58.3149C368.402 51.9067 373.315 47.3497 378.584 44.644C383.853 41.9383 389.834 40.5855 396.527 40.5855C415.04 40.5855 427.501 47.2785 433.909 60.6646C436.045 65.364 437.398 70.1345 437.967 74.9763C438.537 79.8181 438.822 86.1551 438.822 93.9874V162.983H410.198V93.5602C410.198 82.0254 408.205 74.0507 404.217 69.6361C400.8 66.076 395.744 64.2959 389.051 64.2959C380.934 64.2959 374.882 66.7168 370.895 71.5586C368.474 74.4067 366.694 78.2516 365.554 83.0934C364.415 87.7928 363.846 94.0586 363.846 101.891V162.983H335.008Z" fill="#1C0B10"/>
<path d="M501.936 165.332C491.541 165.332 482.356 162.698 474.381 157.429C466.406 152.16 460.212 144.826 455.797 135.427C451.382 125.886 449.175 115.063 449.175 102.959C449.175 90.8545 451.382 80.1029 455.797 70.7042C460.212 61.163 466.406 53.7579 474.381 48.489C482.356 43.22 491.541 40.5855 501.936 40.5855C509.341 40.5855 515.678 41.9383 520.947 44.644C526.359 47.2073 531.343 51.7643 535.9 58.3149V0H564.737V162.983H535.9V147.817C531.201 154.367 526.216 158.924 520.947 161.487C515.678 164.051 509.341 165.332 501.936 165.332ZM508.558 140.554C517.672 140.554 525.077 137.065 530.773 130.087C536.612 123.109 539.531 114.067 539.531 102.959C539.531 91.8513 536.612 82.8086 530.773 75.8307C525.077 68.8529 517.672 65.364 508.558 65.364C499.444 65.364 492.11 68.9241 486.556 76.0443C481.003 83.0222 478.226 91.9937 478.226 102.959C478.226 113.924 481.003 122.967 486.556 130.087C492.11 137.065 499.444 140.554 508.558 140.554Z" fill="#1C0B10"/>
<path d="M71.7722 342.437C60.3798 342.437 49.4858 340.586 39.0903 336.883C28.6947 333.181 19.8655 327.2 12.6028 318.94C5.48259 310.538 1.28165 299.716 0 286.472H31.8276C34.2485 297.152 39.0902 304.771 46.3529 309.328C53.6156 313.885 62.1598 316.163 71.9858 316.163C80.9573 316.163 88.1488 314.312 93.5602 310.61C98.9716 306.765 101.677 301.14 101.677 293.735C101.677 288.466 99.9684 284.265 96.5507 281.132C93.133 277.856 88.7896 275.435 83.5206 273.869C78.394 272.16 71.345 270.309 62.3735 268.315C50.1266 265.61 40.2295 262.833 32.682 259.985C25.2769 257.136 18.8687 252.651 13.4573 246.527C8.04594 240.404 5.34021 232.002 5.34021 221.322C5.34021 211.068 7.83229 202.382 12.8165 195.261C17.8006 187.999 24.6362 182.587 33.3229 179.027C42.0096 175.325 51.9067 173.473 63.0143 173.473C73.8371 173.473 83.8767 175.396 93.133 179.241C102.389 182.943 110.15 188.711 116.416 196.543C122.682 204.233 126.669 213.703 128.378 224.953H96.978C94.9843 216.551 90.8546 210.285 84.5887 206.155C78.4653 201.883 71.0602 199.747 62.3735 199.747C54.3988 199.747 47.9905 201.456 43.1487 204.874C38.307 208.149 35.8861 212.777 35.8861 218.758C35.8861 223.458 37.5238 227.231 40.7991 230.079C44.0745 232.928 48.133 235.135 52.9747 236.701C57.8165 238.268 64.5807 240.048 73.2675 242.041C85.6567 244.747 95.7675 247.595 103.6 250.586C111.574 253.576 118.41 258.418 124.106 265.111C129.802 271.804 132.65 280.847 132.65 292.239C132.65 307.761 127.239 320.008 116.416 328.98C105.736 337.951 90.8545 342.437 71.7722 342.437Z" fill="#1C0B10"/>
<path d="M181.201 339.447C162.546 339.447 153.219 330.689 153.219 313.173V242.682H135.489V219.613H153.219V176.464H182.056V219.613H205.125V242.682H182.056V304.415C182.056 308.117 182.625 310.894 183.764 312.746C185.046 314.597 187.752 315.523 191.882 315.523H204.912V339.447H181.201Z" fill="#1C0B10"/>
<path d="M269.213 341.796C257.251 341.796 246.641 339.162 237.385 333.893C228.129 328.624 220.866 321.219 215.597 311.678C210.47 302.136 207.907 291.171 207.907 278.782C207.907 266.82 210.47 256.14 215.597 246.741C220.866 237.342 228.129 230.079 237.385 224.953C246.641 219.684 257.251 217.049 269.213 217.049C281.175 217.049 291.784 219.684 301.04 224.953C310.439 230.222 317.702 237.556 322.828 246.954C328.097 256.211 330.732 266.82 330.732 278.782C330.732 291.171 328.168 302.136 323.042 311.678C317.915 321.219 310.652 328.624 301.254 333.893C291.997 339.162 281.317 341.796 269.213 341.796ZM269.213 317.018C278.611 317.018 286.23 313.458 292.069 306.337C297.907 299.217 300.827 290.032 300.827 278.782C300.827 267.959 297.907 259.13 292.069 252.295C286.23 245.317 278.611 241.828 269.213 241.828C263.089 241.828 257.607 243.394 252.765 246.527C247.923 249.66 244.149 254.075 241.444 259.771C238.738 265.325 237.385 271.662 237.385 278.782C237.385 290.174 240.304 299.431 246.143 306.551C252.124 313.529 259.814 317.018 269.213 317.018Z" fill="#1C0B10"/>
<path d="M341.485 339.447V219.613H370.322V233.924C374.737 227.801 379.65 223.458 385.061 220.894C390.615 218.331 397.095 217.049 404.5 217.049H407.917V244.818H401.296C392.182 244.818 385.061 247.239 379.935 252.081C376.659 255.356 374.239 259.557 372.672 264.684C371.106 269.668 370.322 276.076 370.322 283.909V339.447H341.485Z" fill="#1C0B10"/>
<path d="M443.083 339.447H414.245V219.613H443.083V339.447ZM428.771 206.369C423.787 206.369 419.586 204.874 416.168 201.883C412.75 198.893 411.041 194.905 411.041 189.921C411.041 185.222 412.75 181.306 416.168 178.173C419.586 175.04 423.787 173.473 428.771 173.473C433.613 173.473 437.742 175.04 441.16 178.173C444.72 181.306 446.5 185.222 446.5 189.921C446.5 194.763 444.791 198.75 441.374 201.883C437.956 204.874 433.755 206.369 428.771 206.369Z" fill="#1C0B10"/>
<path d="M514.815 341.796C502.71 341.796 492.03 339.162 482.774 333.893C473.517 328.624 466.326 321.361 461.199 312.105C456.215 302.706 453.723 292.097 453.723 280.277C453.723 269.312 455.93 259.059 460.345 249.518C464.902 239.834 471.666 232.002 480.638 226.021C489.752 220.04 500.859 217.049 513.96 217.049C524.783 217.049 534.751 219.328 543.865 223.885C552.979 228.299 560.313 235.206 565.867 244.605C571.421 253.861 574.198 265.396 574.198 279.209V285.404H483.628C484.055 290.388 485.55 295.087 488.114 299.502C490.962 305.056 494.736 309.399 499.435 312.532C504.277 315.523 509.759 317.018 515.883 317.018C522.433 317.018 528.058 315.38 532.758 312.105C537.457 308.687 540.804 304.344 542.797 299.075H572.275C568.43 311.749 561.666 322.073 551.983 330.048C542.299 337.88 529.91 341.796 514.815 341.796ZM544.72 263.829C544.15 259.273 542.655 255.57 540.234 252.722C537.528 248.592 533.968 245.459 529.554 243.323C525.139 241.045 520.226 239.905 514.815 239.905C509.403 239.905 504.49 240.973 500.076 243.109C495.804 245.246 492.315 248.45 489.609 252.722C487.046 255.855 485.479 259.557 484.91 263.829H544.72Z" fill="#1C0B10"/>
<path d="M636.496 341.796C621.686 341.796 608.87 338.236 598.047 331.116C587.224 323.996 580.887 313.315 579.036 299.075H607.445C609.297 305.483 612.714 310.467 617.699 314.027C622.683 317.445 628.877 319.154 636.282 319.154C642.548 319.154 647.604 317.943 651.449 315.523C655.436 313.102 657.43 309.684 657.43 305.269C657.43 300.428 655.08 296.939 650.381 294.803C645.824 292.667 638.703 290.673 629.02 288.822C619.764 286.97 612.074 284.977 605.95 282.841C599.827 280.704 594.629 277.287 590.357 272.587C586.085 267.746 583.949 261.195 583.949 252.935C583.949 241.116 588.292 232.216 596.979 226.234C605.808 220.111 616.915 217.049 630.302 217.049C644.4 217.049 656.077 220.609 665.333 227.73C674.732 234.85 680.499 244.89 682.635 257.848H655.507C653.941 251.583 650.879 247.026 646.322 244.178C641.765 241.187 636.354 239.692 630.088 239.692C624.392 239.692 619.835 240.831 616.417 243.109C613.142 245.246 611.504 248.165 611.504 251.867C611.504 256.282 613.711 259.415 618.126 261.266C622.54 263.117 629.518 264.969 639.059 266.82C648.885 268.671 656.86 270.665 662.984 272.801C669.249 274.795 674.589 278.212 679.004 283.054C683.561 287.896 685.839 294.589 685.839 303.133C685.839 314.953 681.425 324.352 672.596 331.33C663.909 338.307 651.876 341.796 636.496 341.796Z" fill="#1C0B10"/>
</svg>
