<svg width="1296" height="169" viewBox="0 0 1296 169" fill="none" xmlns="http://www.w3.org/2000/svg">
<path d="M0 165.973V2.99051H64.5095C84.4463 2.99051 98.8292 7.40507 107.658 16.2342C114.351 22.9272 117.698 32.1124 117.698 43.7896C117.698 53.1883 115.562 61.163 111.29 67.7137C107.16 74.1219 101.25 78.3228 93.5602 80.3165C103.956 82.0254 111.93 86.2263 117.484 92.9194C123.18 99.47 126.029 108.014 126.029 118.552C126.029 125.957 124.676 132.65 121.97 138.631C119.407 144.612 115.918 149.454 111.503 153.157C105.237 158.141 98.046 161.559 89.9289 163.41C81.9542 165.119 74.4067 165.973 67.2864 165.973H0ZM62.5871 70.7042C70.4194 70.7042 76.4004 68.9953 80.5301 65.5776C84.6599 62.0174 86.7248 56.9621 86.7248 50.4114C86.7248 44.0032 84.8023 39.3038 80.9573 36.3133C78.6789 34.3196 75.6171 32.8956 71.7722 32.0412C68.0697 31.0443 63.3703 30.5459 57.6741 30.5459H30.7595V70.7042H62.5871ZM63.4415 138.418C68.8529 138.418 73.6947 137.991 77.9668 137.136C82.3814 136.282 86.0839 134.573 89.0744 132.01C93.0618 128.734 95.0555 123.465 95.0555 116.203C95.0555 107.801 92.4922 102.318 87.3656 99.7548C82.239 97.0491 75.4035 95.6963 66.8592 95.6963H30.7595V138.418H63.4415Z" fill="#1C0B10"/>
<path d="M136.974 165.973V46.1393H165.811V60.451C170.226 54.3276 175.139 49.9842 180.55 47.4209C186.104 44.8576 192.584 43.576 199.989 43.576H203.406V71.345H196.784C187.671 71.345 180.55 73.7659 175.424 78.6076C172.148 81.883 169.727 86.0839 168.161 91.2105C166.595 96.1947 165.811 102.603 165.811 110.435V165.973H136.974Z" fill="#1C0B10"/>
<path d="M243.087 168.323C231.41 168.323 221.94 165.261 214.677 159.138C207.415 152.872 203.783 144.185 203.783 133.078C203.783 121.116 208.34 112.002 217.454 105.736C224.005 101.179 233.333 97.7611 245.437 95.4827L281.109 88.8608C280.825 81.4557 278.902 75.8307 275.342 71.9858C271.782 68.1409 266.442 66.2184 259.322 66.2184C253.768 66.2184 248.855 67.8561 244.583 71.1314C240.453 74.4067 237.89 78.8213 236.893 84.3751H208.269C210.263 71.1314 216.102 61.0206 225.785 54.0427C235.469 47.0649 246.719 43.576 259.535 43.576C266.798 43.576 273.562 44.644 279.828 46.7801C286.094 48.7738 291.434 51.7643 295.848 55.7516C300.263 59.5966 303.467 64.0823 305.461 69.2089C307.454 74.3355 308.665 79.4621 309.092 84.5887C309.662 89.7152 309.947 96.0523 309.947 103.6V165.973H281.109V149.739C278.119 155.008 274.488 158.995 270.215 161.701C263.522 166.116 254.48 168.323 243.087 168.323ZM250.136 145.68C255.833 145.68 260.959 144.541 265.516 142.263C271.497 139.272 275.627 135.285 277.905 130.301C280.184 125.317 281.465 118.552 281.75 110.008L253.127 115.775C245.437 117.199 239.883 119.478 236.465 122.611C233.902 125.174 232.621 128.307 232.621 132.01C232.621 136.424 234.187 139.842 237.32 142.263C240.595 144.541 244.867 145.68 250.136 145.68Z" fill="#1C0B10"/>
<path d="M324.006 165.973V46.1393H352.843V61.3054C357.4 54.8972 362.313 50.3402 367.582 47.6345C372.851 44.9288 378.832 43.576 385.525 43.576C404.038 43.576 416.498 50.269 422.907 63.6551C425.043 68.3545 426.396 73.125 426.965 77.9668C427.535 82.8086 427.82 89.1456 427.82 96.9779V165.973H399.196V96.5507C399.196 85.0159 397.203 77.0412 393.215 72.6266C389.797 69.0665 384.742 67.2864 378.049 67.2864C369.932 67.2864 363.88 69.7073 359.892 74.5491C357.471 77.3972 355.691 81.2421 354.552 86.0839C353.413 90.7833 352.843 97.0491 352.843 104.881V165.973H324.006Z" fill="#1C0B10"/>
<path d="M490.934 168.323C480.538 168.323 471.353 165.688 463.379 160.419C455.404 155.15 449.209 147.817 444.795 138.418C440.38 128.877 438.173 118.054 438.173 105.949C438.173 93.845 440.38 83.0934 444.795 73.6947C449.209 64.1535 455.404 56.7485 463.379 51.4795C471.353 46.2105 480.538 43.576 490.934 43.576C498.339 43.576 504.676 44.9288 509.945 47.6345C515.357 50.1978 520.341 54.7548 524.898 61.3054V2.99051H553.735V165.973H524.898V150.807C520.198 157.358 515.214 161.915 509.945 164.478C504.676 167.041 498.339 168.323 490.934 168.323ZM497.556 143.544C506.67 143.544 514.075 140.055 519.771 133.078C525.61 126.1 528.529 117.057 528.529 105.949C528.529 94.8418 525.61 85.7991 519.771 78.8213C514.075 71.8434 506.67 68.3545 497.556 68.3545C488.442 68.3545 481.108 71.9146 475.554 79.0349C470 86.0127 467.224 94.9842 467.224 105.949C467.224 116.915 470 125.957 475.554 133.078C481.108 140.055 488.442 143.544 497.556 143.544Z" fill="#1C0B10"/>
<path d="M681.933 168.964C670.54 168.964 659.646 167.112 649.251 163.41C638.855 159.707 630.026 153.726 622.763 145.467C615.643 137.065 611.442 126.242 610.161 112.998H641.988C644.409 123.679 649.251 131.298 656.513 135.855C663.776 140.411 672.32 142.69 682.146 142.69C691.118 142.69 698.309 140.839 703.721 137.136C709.132 133.291 711.838 127.666 711.838 120.261C711.838 114.992 710.129 110.791 706.711 107.658C703.294 104.383 698.95 101.962 693.681 100.396C688.555 98.6868 681.506 96.8355 672.534 94.8418C660.287 92.1361 650.39 89.3592 642.843 86.5111C635.437 83.663 629.029 79.1773 623.618 73.0538C618.206 66.9304 615.501 58.5285 615.501 47.8481C615.501 37.595 617.993 28.9082 622.977 21.788C627.961 14.5253 634.797 9.11393 643.483 5.55379C652.17 1.85126 662.067 0 673.175 0C683.998 0 694.037 1.92247 703.294 5.7674C712.55 9.46994 720.311 15.2373 726.577 23.0696C732.843 30.7595 736.83 40.2295 738.539 51.4795H707.138C705.145 43.0776 701.015 36.8117 694.749 32.682C688.626 28.4098 681.221 26.2737 672.534 26.2737C664.559 26.2737 658.151 27.9826 653.309 31.4003C648.468 34.6756 646.047 39.3038 646.047 45.2848C646.047 49.9842 647.684 53.7579 650.96 56.606C654.235 59.4542 658.294 61.6614 663.135 63.2279C667.977 64.7943 674.741 66.5744 683.428 68.5681C695.817 71.2738 705.928 74.1219 713.76 77.1124C721.735 80.1029 728.57 84.9447 734.267 91.6377C739.963 98.3308 742.811 107.373 742.811 118.766C742.811 134.288 737.4 146.535 726.577 155.506C715.896 164.478 701.015 168.964 681.933 168.964Z" fill="#1C0B10"/>
<path d="M791.362 165.973C772.707 165.973 763.379 157.215 763.379 139.699V69.2089H745.65V46.1393H763.379V2.99051H792.216V46.1393H815.286V69.2089H792.216V130.942C792.216 134.644 792.786 137.421 793.925 139.272C795.207 141.124 797.912 142.049 802.042 142.049H815.072V165.973H791.362Z" fill="#1C0B10"/>
<path d="M879.373 168.323C867.411 168.323 856.802 165.688 847.546 160.419C838.289 155.15 831.027 147.745 825.758 138.204C820.631 128.663 818.068 117.698 818.068 105.309C818.068 93.3466 820.631 82.6662 825.758 73.2674C831.027 63.8687 838.289 56.6061 847.546 51.4795C856.802 46.2105 867.411 43.576 879.373 43.576C891.335 43.576 901.944 46.2105 911.201 51.4795C920.599 56.7485 927.862 64.0823 932.989 73.4811C938.258 82.7374 940.892 93.3466 940.892 105.309C940.892 117.698 938.329 128.663 933.202 138.204C928.076 147.745 920.813 155.15 911.414 160.419C902.158 165.688 891.478 168.323 879.373 168.323ZM879.373 143.544C888.772 143.544 896.391 139.984 902.229 132.864C908.068 125.744 910.987 116.559 910.987 105.309C910.987 94.4858 908.068 85.6567 902.229 78.8213C896.391 71.8434 888.772 68.3545 879.373 68.3545C873.25 68.3545 867.767 69.9209 862.925 73.0538C858.084 76.1868 854.31 80.6013 851.604 86.2975C848.898 91.8513 847.546 98.1884 847.546 105.309C847.546 116.701 850.465 125.957 856.303 133.078C862.284 140.055 869.974 143.544 879.373 143.544Z" fill="#1C0B10"/>
<path d="M951.646 165.973V46.1393H980.483V60.451C984.898 54.3276 989.811 49.9842 995.222 47.4209C1000.78 44.8576 1007.26 43.576 1014.66 43.576H1018.08V71.345H1011.46C1002.34 71.345 995.222 73.7659 990.095 78.6076C986.82 81.883 984.399 86.0839 982.833 91.2105C981.266 96.1947 980.483 102.603 980.483 110.435V165.973H951.646Z" fill="#1C0B10"/>
<path d="M1053.24 165.973H1024.41V46.1393H1053.24V165.973ZM1038.93 32.8956C1033.95 32.8956 1029.75 31.4003 1026.33 28.4098C1022.91 25.4193 1021.2 21.432 1021.2 16.4478C1021.2 11.7484 1022.91 7.83228 1026.33 4.69936C1029.75 1.56645 1033.95 0 1038.93 0C1043.77 0 1047.9 1.56645 1051.32 4.69936C1054.88 7.83228 1056.66 11.7484 1056.66 16.4478C1056.66 21.2896 1054.95 25.2769 1051.53 28.4098C1048.12 31.4003 1043.92 32.8956 1038.93 32.8956Z" fill="#1C0B10"/>
<path d="M1124.98 168.323C1112.87 168.323 1102.19 165.688 1092.93 160.419C1083.68 155.15 1076.49 147.888 1071.36 138.631C1066.38 129.233 1063.88 118.623 1063.88 106.804C1063.88 95.8387 1066.09 85.5855 1070.51 76.0443C1075.06 66.3608 1081.83 58.5285 1090.8 52.5475C1099.91 46.5665 1111.02 43.576 1124.12 43.576C1134.94 43.576 1144.91 45.8545 1154.03 50.4114C1163.14 54.826 1170.47 61.7326 1176.03 71.1314C1181.58 80.3877 1184.36 91.9225 1184.36 105.736V111.93H1093.79C1094.22 116.915 1095.71 121.614 1098.27 126.029C1101.12 131.582 1104.9 135.926 1109.6 139.059C1114.44 142.049 1119.92 143.544 1126.04 143.544C1132.59 143.544 1138.22 141.907 1142.92 138.631C1147.62 135.214 1150.96 130.87 1152.96 125.601H1182.44C1178.59 138.275 1171.83 148.6 1162.14 156.574C1152.46 164.407 1140.07 168.323 1124.98 168.323ZM1154.88 90.3561C1154.31 85.7991 1152.82 82.0966 1150.39 79.2485C1147.69 75.1187 1144.13 71.9858 1139.71 69.8497C1135.3 67.5712 1130.39 66.432 1124.98 66.432C1119.56 66.432 1114.65 67.5 1110.24 69.6361C1105.96 71.7722 1102.48 74.9763 1099.77 79.2485C1097.21 82.3814 1095.64 86.0839 1095.07 90.3561H1154.88Z" fill="#1C0B10"/>
<path d="M1246.66 168.323C1231.85 168.323 1219.03 164.763 1208.21 157.643C1197.38 150.522 1191.05 139.842 1189.2 125.601H1217.61C1219.46 132.01 1222.88 136.994 1227.86 140.554C1232.84 143.972 1239.04 145.68 1246.44 145.68C1252.71 145.68 1257.76 144.47 1261.61 142.049C1265.6 139.628 1267.59 136.211 1267.59 131.796C1267.59 126.954 1265.24 123.465 1260.54 121.329C1255.98 119.193 1248.86 117.199 1239.18 115.348C1229.92 113.497 1222.23 111.503 1216.11 109.367C1209.99 107.231 1204.79 103.813 1200.52 99.114C1196.25 94.2722 1194.11 87.7216 1194.11 79.4621C1194.11 67.6424 1198.45 58.7421 1207.14 52.7611C1215.97 46.6377 1227.08 43.576 1240.46 43.576C1254.56 43.576 1266.24 47.1361 1275.49 54.2564C1284.89 61.3766 1290.66 71.4162 1292.8 84.3751H1265.67C1264.1 78.1092 1261.04 73.5523 1256.48 70.7042C1251.93 67.7137 1246.51 66.2184 1240.25 66.2184C1234.55 66.2184 1230 67.3576 1226.58 69.6361C1223.3 71.7722 1221.66 74.6915 1221.66 78.394C1221.66 82.8086 1223.87 85.9415 1228.29 87.7928C1232.7 89.644 1239.68 91.4953 1249.22 93.3466C1259.05 95.1978 1267.02 97.1915 1273.14 99.3276C1279.41 101.321 1284.75 104.739 1289.16 109.581C1293.72 114.423 1296 121.116 1296 129.66C1296 141.48 1291.59 150.878 1282.76 157.856C1274.07 164.834 1262.04 168.323 1246.66 168.323Z" fill="#1C0B10"/>
</svg>
