<?xml version="1.0" encoding="UTF-8"?>
<svg id="Layer_2" data-name="Layer 2" xmlns="http://www.w3.org/2000/svg" viewBox="0 0 293.25 70.9">
  <g id="Layer_1-2" data-name="Layer 1">
    <g>
      <path d="M3.14,31.4c2.09-3.88,4.94-6.9,8.56-9.06,3.61-2.15,7.63-3.23,12.06-3.23,3.28,0,6.51.71,9.69,2.14,3.19,1.43,5.72,3.32,7.6,5.69V2.73h10.47v67.35h-10.47v-7.55c-1.7,2.43-4.05,4.43-7.05,6.01-3,1.58-6.45,2.37-10.33,2.37-4.37,0-8.36-1.11-11.97-3.32-3.61-2.21-6.46-5.31-8.56-9.28-2.09-3.97-3.14-8.48-3.14-13.52s1.05-9.5,3.14-13.38ZM38.91,35.95c-1.43-2.55-3.29-4.49-5.6-5.83-2.31-1.33-4.79-2-7.46-2s-5.16.65-7.46,1.96c-2.31,1.31-4.17,3.22-5.6,5.73-1.43,2.52-2.14,5.51-2.14,8.97s.71,6.49,2.14,9.1c1.43,2.61,3.31,4.6,5.64,5.96,2.34,1.37,4.81,2.05,7.42,2.05s5.16-.67,7.46-2c2.31-1.33,4.17-3.29,5.6-5.87,1.42-2.58,2.14-5.6,2.14-9.06s-.71-6.46-2.14-9.01Z"/>
      <path d="M68.63,67.67c-3.82-2.15-6.83-5.19-9.01-9.1-2.18-3.91-3.28-8.45-3.28-13.61s1.12-9.62,3.37-13.56c2.24-3.94,5.31-6.98,9.19-9.1,3.88-2.12,8.22-3.19,13.02-3.19s9.13,1.06,13.02,3.19c3.88,2.12,6.95,5.16,9.19,9.1,2.24,3.94,3.37,8.46,3.37,13.56s-1.15,9.62-3.46,13.56c-2.31,3.94-5.45,6.99-9.42,9.15-3.98,2.15-8.36,3.23-13.15,3.23s-9.01-1.08-12.83-3.23ZM88.97,59.98c2.33-1.27,4.23-3.19,5.69-5.73,1.46-2.55,2.18-5.64,2.18-9.28s-.7-6.72-2.09-9.24c-1.4-2.52-3.25-4.41-5.55-5.69-2.31-1.27-4.79-1.91-7.46-1.91s-5.14.64-7.42,1.91c-2.28,1.27-4.08,3.17-5.42,5.69-1.34,2.52-2,5.6-2,9.24,0,5.4,1.38,9.57,4.14,12.51,2.76,2.94,6.23,4.41,10.42,4.41,2.67,0,5.17-.64,7.51-1.91Z"/>
      <path d="M119.91,68.76c-3.13-1.42-5.6-3.37-7.42-5.83-1.82-2.46-2.79-5.2-2.91-8.24h10.74c.18,2.12,1.2,3.9,3.05,5.32,1.85,1.43,4.17,2.14,6.96,2.14s5.17-.56,6.78-1.68c1.61-1.12,2.41-2.56,2.41-4.32,0-1.88-.9-3.28-2.69-4.19-1.79-.91-4.63-1.91-8.51-3-3.76-1.03-6.83-2.03-9.19-3-2.37-.97-4.41-2.46-6.14-4.46-1.73-2-2.59-4.64-2.59-7.92,0-2.67.79-5.11,2.37-7.33,1.58-2.21,3.84-3.96,6.78-5.23,2.94-1.27,6.33-1.91,10.15-1.91,5.7,0,10.3,1.44,13.79,4.32,3.49,2.88,5.35,6.81,5.6,11.79h-10.38c-.18-2.24-1.09-4.03-2.73-5.37-1.64-1.33-3.85-2-6.64-2s-4.82.52-6.28,1.55c-1.46,1.03-2.18,2.4-2.18,4.1,0,1.34.48,2.46,1.46,3.37.97.91,2.15,1.62,3.55,2.14,1.4.52,3.46,1.17,6.19,1.96,3.64.97,6.63,1.96,8.96,2.96,2.34,1,4.35,2.47,6.05,4.41,1.7,1.94,2.58,4.52,2.64,7.74,0,2.85-.79,5.4-2.37,7.65-1.58,2.25-3.81,4-6.69,5.28-2.88,1.27-6.27,1.91-10.15,1.91s-7.48-.71-10.6-2.14Z"/>
      <path d="M163.05,68.76c-3.13-1.42-5.6-3.37-7.42-5.83-1.82-2.46-2.79-5.2-2.91-8.24h10.74c.18,2.12,1.2,3.9,3.05,5.32,1.85,1.43,4.17,2.14,6.96,2.14s5.17-.56,6.78-1.68c1.61-1.12,2.41-2.56,2.41-4.32,0-1.88-.9-3.28-2.69-4.19-1.79-.91-4.63-1.91-8.51-3-3.76-1.03-6.83-2.03-9.19-3-2.37-.97-4.41-2.46-6.14-4.46-1.73-2-2.59-4.64-2.59-7.92,0-2.67.79-5.11,2.37-7.33,1.58-2.21,3.84-3.96,6.78-5.23,2.94-1.27,6.33-1.91,10.15-1.91,5.7,0,10.3,1.44,13.79,4.32,3.49,2.88,5.35,6.81,5.6,11.79h-10.38c-.18-2.24-1.09-4.03-2.73-5.37-1.64-1.33-3.85-2-6.64-2s-4.82.52-6.28,1.55c-1.46,1.03-2.18,2.4-2.18,4.1,0,1.34.48,2.46,1.46,3.37.97.91,2.15,1.62,3.55,2.14,1.4.52,3.46,1.17,6.19,1.96,3.64.97,6.63,1.96,8.96,2.96,2.34,1,4.35,2.47,6.05,4.41,1.7,1.94,2.58,4.52,2.64,7.74,0,2.85-.79,5.4-2.37,7.65-1.58,2.25-3.81,4-6.69,5.28-2.88,1.27-6.27,1.91-10.15,1.91s-7.48-.71-10.6-2.14Z"/>
      <path d="M199.14,11.38c-1.27-1.27-1.91-2.85-1.91-4.73s.64-3.46,1.91-4.73,2.85-1.91,4.73-1.91,3.37.64,4.64,1.91c1.27,1.27,1.91,2.85,1.91,4.73s-.64,3.46-1.91,4.73c-1.27,1.27-2.82,1.91-4.64,1.91s-3.46-.64-4.73-1.91ZM208.97,19.93v50.15h-10.38V19.93h10.38Z"/>
      <path d="M262.76,48.88h-38.32c.3,4,1.79,7.22,4.46,9.65,2.67,2.43,5.95,3.64,9.83,3.64,5.58,0,9.53-2.33,11.83-7.01h11.2c-1.52,4.61-4.26,8.39-8.24,11.33-3.97,2.94-8.91,4.41-14.79,4.41-4.79,0-9.09-1.08-12.88-3.23-3.79-2.15-6.77-5.19-8.92-9.1-2.15-3.91-3.23-8.45-3.23-13.61s1.05-9.69,3.14-13.61c2.09-3.91,5.04-6.93,8.83-9.06,3.79-2.12,8.15-3.19,13.06-3.19s8.95,1.03,12.65,3.09c3.7,2.06,6.58,4.96,8.65,8.69,2.06,3.73,3.09,8.02,3.09,12.88,0,1.88-.12,3.58-.36,5.1ZM252.3,40.5c-.06-3.82-1.43-6.89-4.1-9.19-2.67-2.31-5.98-3.46-9.92-3.46-3.58,0-6.64,1.14-9.19,3.41s-4.07,5.36-4.55,9.24h27.76Z"/>
      <path d="M284.29,21.25c2.52-1.42,5.51-2.14,8.97-2.14v10.74h-2.64c-4.07,0-7.15,1.03-9.24,3.09-2.09,2.06-3.14,5.64-3.14,10.74v26.4h-10.38V19.93h10.38v7.28c1.52-2.55,3.53-4.54,6.05-5.96Z"/>
    </g>
  </g>
</svg>